<?xml version="1.0" encoding="UTF-8"?>
<svg id="_레이어_2" data-name="레이어 2" xmlns="http://www.w3.org/2000/svg" viewBox="0 0 180.92 277.29">
  <defs>
    <style>
      .cls-1 {
        fill: none;
      }

      .cls-2 {
        fill: #231815;
      }
    </style>
  </defs>
  <g id="_레이어_1-2" data-name="레이어 1">
    <circle class="cls-2" cx="85.61" cy="138.64" r="2.23"/>
    <circle class="cls-2" cx="85.61" cy="276.55" r=".74"/>
    <circle class="cls-2" cx="85.61" cy="249.9" r=".74"/>
    <circle class="cls-2" cx="85.61" cy="258.8" r=".74"/>
    <circle class="cls-2" cx="85.61" cy="263.2" r=".74"/>
    <circle class="cls-2" cx="85.61" cy="245.45" r=".74"/>
    <circle class="cls-2" cx="85.61" cy="254.35" r=".74"/>
    <circle class="cls-2" cx="85.61" cy="267.7" r=".74"/>
    <circle class="cls-2" cx="85.61" cy="272.15" r=".74"/>
    <circle class="cls-2" cx="85.61" cy="200.95" r=".74"/>
    <circle class="cls-2" cx="85.61" cy="223.2" r=".74"/>
    <circle class="cls-2" cx="85.61" cy="227.65" r=".74"/>
    <circle class="cls-2" cx="85.61" cy="183.15" r=".74"/>
    <circle class="cls-2" cx="85.61" cy="209.85" r=".74"/>
    <circle class="cls-2" cx="85.61" cy="232.1" r=".74"/>
    <circle class="cls-2" cx="85.61" cy="241" r=".74"/>
    <circle class="cls-2" cx="85.61" cy="214.3" r=".74"/>
    <circle class="cls-2" cx="85.61" cy="196.5" r=".74"/>
    <circle class="cls-2" cx="85.61" cy="205.4" r=".74"/>
    <circle class="cls-2" cx="85.61" cy="187.6" r=".74"/>
    <circle class="cls-2" cx="85.61" cy="192.05" r=".74"/>
    <circle class="cls-2" cx="85.61" cy="218.75" r=".74"/>
    <circle class="cls-2" cx="85.61" cy="236.55" r=".74"/>
    <circle class="cls-2" cx="85.61" cy="151.99" r=".74"/>
    <circle class="cls-2" cx="85.61" cy="156.44" r=".74"/>
    <circle class="cls-2" cx="85.61" cy="160.89" r=".74"/>
    <circle class="cls-2" cx="85.61" cy="165.34" r=".74"/>
    <circle class="cls-2" cx="85.61" cy="169.8" r=".74"/>
    <circle class="cls-2" cx="85.61" cy="174.25" r=".74"/>
    <circle class="cls-2" cx="85.61" cy="178.7" r=".74"/>
    <circle class="cls-2" cx="85.61" cy="183.15" r=".74"/>
    <circle class="cls-2" cx="85.61" cy="147.54" r=".74"/>
    <circle class="cls-2" cx="85.61" cy="143.09" r=".74"/>
    <circle class="cls-2" cx="85.61" cy="134.19" r=".74"/>
    <circle class="cls-2" cx="85.61" cy="107.6" r=".74"/>
    <circle class="cls-2" cx="85.61" cy="116.5" r=".74"/>
    <circle class="cls-2" cx="85.61" cy="120.78" r=".74"/>
    <circle class="cls-2" cx="85.61" cy="102.98" r=".74"/>
    <circle class="cls-2" cx="85.61" cy="111.88" r=".74"/>
    <circle class="cls-2" cx="85.61" cy="125.35" r=".74"/>
    <circle class="cls-2" cx="85.61" cy="129.74" r=".74"/>
    <circle class="cls-2" cx="85.61" cy="58.54" r=".74"/>
    <circle class="cls-2" cx="85.61" cy="80.79" r=".74"/>
    <circle class="cls-2" cx="85.61" cy="85.29" r=".74"/>
    <circle class="cls-2" cx="85.61" cy="40.79" r=".74"/>
    <circle class="cls-2" cx="85.61" cy="67.44" r=".74"/>
    <circle class="cls-2" cx="85.61" cy="89.69" r=".74"/>
    <circle class="cls-2" cx="85.61" cy="98.7" r=".74"/>
    <circle class="cls-2" cx="85.61" cy="71.89" r=".74"/>
    <circle class="cls-2" cx="85.61" cy="54.14" r=".74"/>
    <circle class="cls-2" cx="85.61" cy="63.04" r=".74"/>
    <circle class="cls-2" cx="85.61" cy="45.24" r=".74"/>
    <circle class="cls-2" cx="85.61" cy="49.63" r=".74"/>
    <circle class="cls-2" cx="85.61" cy="76.39" r=".74"/>
    <circle class="cls-2" cx="85.61" cy="94.08" r=".74"/>
    <circle class="cls-2" cx="85.61" cy="9.64" r=".74"/>
    <circle class="cls-2" cx="85.61" cy="14.03" r=".74"/>
    <circle class="cls-2" cx="85.61" cy="18.48" r=".74"/>
    <circle class="cls-2" cx="85.61" cy="22.93" r=".74"/>
    <circle class="cls-2" cx="85.61" cy="27.38" r=".74"/>
    <circle class="cls-2" cx="85.61" cy="31.83" r=".74"/>
    <circle class="cls-2" cx="85.61" cy="36.28" r=".74"/>
    <circle class="cls-2" cx="85.61" cy="40.73" r=".74"/>
    <circle class="cls-2" cx="85.61" cy="5.13" r=".74"/>
    <circle class="cls-2" cx="85.61" cy=".74" r=".74"/>
    <rect class="cls-1" y="111.6" width="61.11" height="61.11"/>
    <rect class="cls-1" x="119.81" y="111.6" width="61.11" height="61.11"/>
  </g>
</svg>