<?xml version="1.0" encoding="UTF-8"?>
<svg id="_레이어_2" data-name="레이어 2" xmlns="http://www.w3.org/2000/svg" viewBox="0 0 166.4 274">
  <defs>
    <style>
      .cls-1 {
        fill: none;
      }

      .cls-2 {
        fill: #231815;
      }
    </style>
  </defs>
  <g id="_레이어_1-2" data-name="레이어 1">
    <circle class="cls-2" cx="76.49" cy="131.07" r="2.23"/>
    <circle class="cls-2" cx="76.49" cy="107.46" r=".74"/>
    <circle class="cls-2" cx="76.49" cy="119.23" r=".74"/>
    <circle class="cls-2" cx="76.49" cy="95.53" r=".74"/>
    <circle class="cls-2" cx="76.49" cy="95.53" r=".74"/>
    <circle class="cls-2" cx="76.49" cy="95.53" r=".74"/>
    <circle class="cls-2" cx="76.49" cy="95.53" r=".74"/>
    <circle class="cls-2" cx="76.49" cy="95.53" r=".74"/>
    <circle class="cls-2" cx="76.49" cy="95.53" r=".74"/>
    <circle class="cls-2" cx="76.49" cy="95.53" r=".74"/>
    <circle class="cls-2" cx="76.49" cy="95.53" r=".74"/>
    <circle class="cls-2" cx="76.49" cy="273.26" r=".74"/>
    <circle class="cls-2" cx="76.49" cy="71.83" r=".74"/>
    <circle class="cls-2" cx="76.49" cy="83.68" r=".74"/>
    <circle class="cls-2" cx="76.49" cy=".74" r=".74"/>
    <circle class="cls-2" cx="76.49" cy="12.59" r=".74"/>
    <circle class="cls-2" cx="76.49" cy="24.43" r=".74"/>
    <circle class="cls-2" cx="76.49" cy="36.28" r=".74"/>
    <circle class="cls-2" cx="76.49" cy="48.13" r=".74"/>
    <circle class="cls-2" cx="76.49" cy="59.98" r=".74"/>
    <circle class="cls-2" cx="76.49" cy="249.65" r=".74"/>
    <circle class="cls-2" cx="76.49" cy="261.41" r=".74"/>
    <circle class="cls-2" cx="76.49" cy="237.71" r=".74"/>
    <circle class="cls-2" cx="76.49" cy="237.71" r=".74"/>
    <circle class="cls-2" cx="76.49" cy="237.71" r=".74"/>
    <circle class="cls-2" cx="76.49" cy="237.71" r=".74"/>
    <circle class="cls-2" cx="76.49" cy="237.71" r=".74"/>
    <circle class="cls-2" cx="76.49" cy="237.71" r=".74"/>
    <circle class="cls-2" cx="76.49" cy="237.71" r=".74"/>
    <circle class="cls-2" cx="76.49" cy="237.71" r=".74"/>
    <circle class="cls-2" cx="76.49" cy="214.02" r=".74"/>
    <circle class="cls-2" cx="76.49" cy="225.86" r=".74"/>
    <circle class="cls-2" cx="76.49" cy="142.92" r=".74"/>
    <circle class="cls-2" cx="76.49" cy="154.77" r=".74"/>
    <circle class="cls-2" cx="76.49" cy="166.62" r=".74"/>
    <circle class="cls-2" cx="76.49" cy="178.47" r=".74"/>
    <circle class="cls-2" cx="76.49" cy="190.32" r=".74"/>
    <circle class="cls-2" cx="76.49" cy="202.17" r=".74"/>
    <rect class="cls-1" x="105.29" y="107.34" width="61.11" height="61.11"/>
    <rect class="cls-1" y="105.15" width="61.11" height="61.11"/>
  </g>
</svg>