<?xml version="1.0" encoding="UTF-8"?>
<svg id="_레이어_2" data-name="레이어 2" xmlns="http://www.w3.org/2000/svg" viewBox="0 0 151.28 268.5">
  <defs>
    <style>
      .cls-1 {
        fill: none;
      }

      .cls-2 {
        fill: #231815;
      }
    </style>
  </defs>
  <g id="_레이어_1-2" data-name="레이어 1">
    <circle class="cls-2" cx="75.39" cy="125.35" r="2.23"/>
    <circle class="cls-2" cx="75.39" cy="125.35" r="2.23"/>
    <circle class="cls-2" cx="75.39" cy="125.35" r="2.23"/>
    <circle class="cls-2" cx="75.39" cy=".74" r=".74"/>
    <circle class="cls-2" cx="75.39" cy="18.54" r=".74"/>
    <circle class="cls-2" cx="75.39" cy="36.34" r=".74"/>
    <circle class="cls-2" cx="75.39" cy="71.94" r=".74"/>
    <circle class="cls-2" cx="75.39" cy="267.76" r=".74"/>
    <circle class="cls-2" cx="75.39" cy="54.14" r=".74"/>
    <circle class="cls-2" cx="75.39" cy="89.74" r=".74"/>
    <circle class="cls-2" cx="75.39" cy="107.55" r=".74"/>
    <circle class="cls-2" cx="76.13" cy="143.15" r=".74"/>
    <circle class="cls-2" cx="76.13" cy="160.95" r=".74"/>
    <circle class="cls-2" cx="76.13" cy="178.75" r=".74"/>
    <circle class="cls-2" cx="76.13" cy="214.36" r=".74"/>
    <circle class="cls-2" cx="76.13" cy="196.55" r=".74"/>
    <circle class="cls-2" cx="76.13" cy="232.16" r=".74"/>
    <circle class="cls-2" cx="76.13" cy="249.96" r=".74"/>
    <rect class="cls-1" x="90.17" y="90.24" width="61.11" height="61.11"/>
    <rect class="cls-1" y="97.77" width="61.11" height="61.11"/>
  </g>
</svg>