<?xml version="1.0" encoding="UTF-8"?>
<svg id="_레이어_2" data-name="레이어 2" xmlns="http://www.w3.org/2000/svg" viewBox="0 0 162.43 287.43">
  <defs>
    <style>
      .cls-1 {
        fill: none;
      }

      .cls-2 {
        fill: #231815;
      }
    </style>
  </defs>
  <g id="_레이어_1-2" data-name="레이어 1">
    <circle class="cls-2" cx="76.82" cy="6.63" r=".74"/>
    <circle class="cls-2" cx="76.82" cy="9.58" r=".74"/>
    <circle class="cls-2" cx="76.82" cy="12.53" r=".74"/>
    <circle class="cls-2" cx="76.82" cy="15.48" r=".74"/>
    <circle class="cls-2" cx="76.82" cy="18.43" r=".74"/>
    <circle class="cls-2" cx="76.82" cy="21.37" r=".74"/>
    <circle class="cls-2" cx="76.82" cy="24.32" r=".74"/>
    <circle class="cls-2" cx="76.82" cy="27.27" r=".74"/>
    <circle class="cls-2" cx="76.82" cy="53.8" r=".74"/>
    <circle class="cls-2" cx="76.82" cy="56.75" r=".74"/>
    <circle class="cls-2" cx="76.82" cy="50.85" r=".74"/>
    <circle class="cls-2" cx="76.82" cy="47.91" r=".74"/>
    <circle class="cls-2" cx="76.82" cy="44.96" r=".74"/>
    <circle class="cls-2" cx="76.82" cy="42.01" r=".74"/>
    <circle class="cls-2" cx="76.82" cy="39.06" r=".74"/>
    <circle class="cls-2" cx="76.82" cy="36.11" r=".74"/>
    <circle class="cls-2" cx="76.82" cy="33.17" r=".74"/>
    <circle class="cls-2" cx="76.82" cy="30.22" r=".74"/>
    <circle class="cls-2" cx="76.82" cy="121.61" r=".74"/>
    <circle class="cls-2" cx="76.82" cy="118.66" r=".74"/>
    <circle class="cls-2" cx="76.82" cy="115.71" r=".74"/>
    <circle class="cls-2" cx="76.82" cy="112.76" r=".74"/>
    <circle class="cls-2" cx="76.82" cy="109.81" r=".74"/>
    <circle class="cls-2" cx="76.82" cy="106.87" r=".74"/>
    <circle class="cls-2" cx="76.82" cy="103.92" r=".74"/>
    <circle class="cls-2" cx="76.82" cy="100.97" r=".74"/>
    <circle class="cls-2" cx="76.82" cy="98.02" r=".74"/>
    <circle class="cls-2" cx="76.82" cy="95.07" r=".74"/>
    <circle class="cls-2" cx="76.82" cy="92.13" r=".74"/>
    <circle class="cls-2" cx="76.82" cy="89.18" r=".74"/>
    <circle class="cls-2" cx="76.82" cy="86.23" r=".74"/>
    <circle class="cls-2" cx="76.82" cy="83.28" r=".74"/>
    <circle class="cls-2" cx="76.82" cy="80.33" r=".74"/>
    <circle class="cls-2" cx="76.82" cy="77.39" r=".74"/>
    <circle class="cls-2" cx="76.82" cy="74.44" r=".74"/>
    <circle class="cls-2" cx="76.82" cy="71.49" r=".74"/>
    <circle class="cls-2" cx="76.82" cy="68.54" r=".74"/>
    <circle class="cls-2" cx="76.82" cy="65.59" r=".74"/>
    <circle class="cls-2" cx="76.82" cy="62.65" r=".74"/>
    <circle class="cls-2" cx="76.82" cy="59.7" r=".74"/>
    <circle class="cls-2" cx="76.82" cy="171.72" r=".74"/>
    <circle class="cls-2" cx="76.82" cy="168.77" r=".74"/>
    <circle class="cls-2" cx="76.82" cy="165.83" r=".74"/>
    <circle class="cls-2" cx="76.82" cy="162.88" r=".74"/>
    <circle class="cls-2" cx="76.82" cy="159.93" r=".74"/>
    <circle class="cls-2" cx="76.82" cy="156.98" r=".74"/>
    <circle class="cls-2" cx="76.82" cy="154.03" r=".74"/>
    <circle class="cls-2" cx="76.82" cy="151.09" r=".74"/>
    <circle class="cls-2" cx="76.82" cy="148.14" r=".74"/>
    <circle class="cls-2" cx="76.82" cy="145.19" r=".74"/>
    <circle class="cls-2" cx="76.82" cy="139.29" r=".74"/>
    <circle class="cls-2" cx="76.82" cy="136.35" r=".74"/>
    <circle class="cls-2" cx="76.82" cy="133.4" r=".74"/>
    <circle class="cls-2" cx="76.82" cy="130.45" r=".74"/>
    <circle class="cls-2" cx="76.82" cy="127.5" r=".74"/>
    <circle class="cls-2" cx="76.82" cy="124.55" r=".74"/>
    <circle class="cls-2" cx="76.82" cy="174.67" r=".74"/>
    <circle class="cls-2" cx="76.82" cy="177.62" r=".74"/>
    <circle class="cls-2" cx="76.82" cy="180.57" r=".74"/>
    <circle class="cls-2" cx="76.82" cy="183.51" r=".74"/>
    <circle class="cls-2" cx="76.82" cy="186.46" r=".74"/>
    <circle class="cls-2" cx="76.82" cy="189.41" r=".74"/>
    <circle class="cls-2" cx="76.82" cy="192.36" r=".74"/>
    <circle class="cls-2" cx="76.82" cy="195.31" r=".74"/>
    <circle class="cls-2" cx="76.82" cy="221.84" r=".74"/>
    <circle class="cls-2" cx="76.82" cy="224.79" r=".74"/>
    <circle class="cls-2" cx="76.82" cy="218.89" r=".74"/>
    <circle class="cls-2" cx="76.82" cy="215.94" r=".74"/>
    <circle class="cls-2" cx="76.82" cy="213" r=".74"/>
    <circle class="cls-2" cx="76.82" cy="210.05" r=".74"/>
    <circle class="cls-2" cx="76.82" cy="207.1" r=".74"/>
    <circle class="cls-2" cx="76.82" cy="204.15" r=".74"/>
    <circle class="cls-2" cx="76.82" cy="201.2" r=".74"/>
    <circle class="cls-2" cx="76.82" cy="198.26" r=".74"/>
    <circle class="cls-2" cx="76.82" cy="280.8" r=".74"/>
    <circle class="cls-2" cx="76.82" cy="277.85" r=".74"/>
    <circle class="cls-2" cx="76.82" cy="274.9" r=".74"/>
    <circle class="cls-2" cx="76.82" cy="271.96" r=".74"/>
    <circle class="cls-2" cx="76.82" cy="269.01" r=".74"/>
    <circle class="cls-2" cx="76.82" cy="266.06" r=".74"/>
    <circle class="cls-2" cx="76.82" cy="263.11" r=".74"/>
    <circle class="cls-2" cx="76.82" cy="260.16" r=".74"/>
    <circle class="cls-2" cx="76.82" cy="257.22" r=".74"/>
    <circle class="cls-2" cx="76.82" cy="254.27" r=".74"/>
    <circle class="cls-2" cx="76.82" cy="251.32" r=".74"/>
    <circle class="cls-2" cx="76.82" cy="248.37" r=".74"/>
    <circle class="cls-2" cx="76.82" cy="245.42" r=".74"/>
    <circle class="cls-2" cx="76.82" cy="242.48" r=".74"/>
    <circle class="cls-2" cx="76.82" cy="239.53" r=".74"/>
    <circle class="cls-2" cx="76.82" cy="236.58" r=".74"/>
    <circle class="cls-2" cx="76.82" cy="233.63" r=".74"/>
    <circle class="cls-2" cx="76.82" cy="230.68" r=".74"/>
    <circle class="cls-2" cx="76.82" cy="227.74" r=".74"/>
    <circle class="cls-2" cx="76.82" cy="142.24" r="2.23"/>
    <circle class="cls-2" cx="76.82" cy="286.7" r=".74"/>
    <circle class="cls-2" cx="76.82" cy="283.75" r=".74"/>
    <circle class="cls-2" cx="76.82" cy=".74" r=".74"/>
    <circle class="cls-2" cx="76.82" cy="3.69" r=".74"/>
    <rect class="cls-1" x="101.32" y="106.46" width="61.11" height="61.11"/>
    <rect class="cls-1" y="116.11" width="61.11" height="61.11"/>
  </g>
</svg>