<?xml version="1.0" encoding="UTF-8"?>
<svg id="_레이어_2" data-name="레이어 2" xmlns="http://www.w3.org/2000/svg" viewBox="0 0 166.26 277.4">
  <defs>
    <style>
      .cls-1 {
        fill: none;
      }

      .cls-2 {
        fill: #231815;
      }
    </style>
  </defs>
  <g id="_레이어_1-2" data-name="레이어 1">
    <circle class="cls-2" cx="78.71" cy="134.25" r="2.23"/>
    <circle class="cls-2" cx="78.71" cy="63.04" r=".74"/>
    <circle class="cls-2" cx="78.71" cy="36.34" r=".74"/>
    <circle class="cls-2" cx="78.71" cy="45.24" r=".74"/>
    <circle class="cls-2" cx="78.71" cy=".74" r=".74"/>
    <circle class="cls-2" cx="78.71" cy="54.14" r=".74"/>
    <circle class="cls-2" cx="78.71" cy="9.64" r=".74"/>
    <circle class="cls-2" cx="78.71" cy="71.94" r=".74"/>
    <circle class="cls-2" cx="78.71" cy="18.54" r=".74"/>
    <circle class="cls-2" cx="78.71" cy="80.84" r=".74"/>
    <circle class="cls-2" cx="78.71" cy="27.44" r=".74"/>
    <circle class="cls-2" cx="78.71" cy="89.74" r=".74"/>
    <circle class="cls-2" cx="78.71" cy="116.45" r=".74"/>
    <circle class="cls-2" cx="78.71" cy="98.65" r=".74"/>
    <circle class="cls-2" cx="78.71" cy="125.35" r=".74"/>
    <circle class="cls-2" cx="78.71" cy="107.55" r=".74"/>
    <circle class="cls-2" cx="78.71" cy="205.46" r=".74"/>
    <circle class="cls-2" cx="78.71" cy="178.75" r=".74"/>
    <circle class="cls-2" cx="78.71" cy="187.65" r=".74"/>
    <circle class="cls-2" cx="78.71" cy="143.15" r=".74"/>
    <circle class="cls-2" cx="78.71" cy="196.55" r=".74"/>
    <circle class="cls-2" cx="78.71" cy="152.05" r=".74"/>
    <circle class="cls-2" cx="78.71" cy="214.36" r=".74"/>
    <circle class="cls-2" cx="78.71" cy="160.95" r=".74"/>
    <circle class="cls-2" cx="78.71" cy="223.26" r=".74"/>
    <circle class="cls-2" cx="78.71" cy="169.85" r=".74"/>
    <circle class="cls-2" cx="78.71" cy="232.16" r=".74"/>
    <circle class="cls-2" cx="78.71" cy="258.86" r=".74"/>
    <circle class="cls-2" cx="78.71" cy="241.06" r=".74"/>
    <circle class="cls-2" cx="78.71" cy="267.76" r=".74"/>
    <circle class="cls-2" cx="78.71" cy="249.96" r=".74"/>
    <circle class="cls-2" cx="78.71" cy="276.66" r=".74"/>
    <rect class="cls-1" y="105.98" width="61.11" height="61.11"/>
    <rect class="cls-1" x="105.16" y="105.2" width="61.11" height="61.11"/>
  </g>
</svg>