<?xml version="1.0" encoding="UTF-8"?>
<svg id="_레이어_2" data-name="레이어 2" xmlns="http://www.w3.org/2000/svg" viewBox="0 0 152.96 290.61">
  <defs>
    <style>
      .cls-1 {
        fill: none;
      }

      .cls-2 {
        fill: #231815;
      }
    </style>
  </defs>
  <g id="_레이어_1-2" data-name="레이어 1">
    <circle class="cls-2" cx="80.83" cy="135.67" r="2.23"/>
    <circle class="cls-2" cx="80.83" cy="135.67" r="2.23"/>
    <circle class="cls-2" cx="80.83" cy=".74" r=".74"/>
    <circle class="cls-2" cx="80.83" cy="20.01" r=".74"/>
    <circle class="cls-2" cx="80.83" cy="39.29" r=".74"/>
    <circle class="cls-2" cx="80.83" cy="58.56" r=".74"/>
    <circle class="cls-2" cx="80.83" cy="97.11" r=".74"/>
    <circle class="cls-2" cx="80.83" cy="116.39" r=".74"/>
    <circle class="cls-2" cx="80.83" cy="116.39" r=".74"/>
    <circle class="cls-2" cx="80.83" cy="116.39" r=".74"/>
    <circle class="cls-2" cx="80.83" cy="116.39" r=".74"/>
    <circle class="cls-2" cx="80.83" cy="116.39" r=".74"/>
    <circle class="cls-2" cx="80.83" cy="116.39" r=".74"/>
    <circle class="cls-2" cx="80.83" cy="116.39" r=".74"/>
    <circle class="cls-2" cx="80.83" cy="116.39" r=".74"/>
    <circle class="cls-2" cx="80.83" cy="116.39" r=".74"/>
    <circle class="cls-2" cx="80.83" cy="116.39" r=".74"/>
    <circle class="cls-2" cx="80.83" cy="116.39" r=".74"/>
    <circle class="cls-2" cx="80.83" cy="116.39" r=".74"/>
    <circle class="cls-2" cx="80.83" cy="116.39" r=".74"/>
    <circle class="cls-2" cx="80.83" cy="116.39" r=".74"/>
    <circle class="cls-2" cx="80.83" cy="116.39" r=".74"/>
    <circle class="cls-2" cx="80.83" cy="116.39" r=".74"/>
    <circle class="cls-2" cx="80.83" cy="116.39" r=".74"/>
    <circle class="cls-2" cx="80.83" cy="116.39" r=".74"/>
    <circle class="cls-2" cx="80.83" cy="116.39" r=".74"/>
    <circle class="cls-2" cx="80.83" cy="116.39" r=".74"/>
    <circle class="cls-2" cx="80.83" cy="116.39" r=".74"/>
    <circle class="cls-2" cx="80.83" cy="116.39" r=".74"/>
    <circle class="cls-2" cx="80.83" cy="116.39" r=".74"/>
    <circle class="cls-2" cx="80.83" cy="116.39" r=".74"/>
    <circle class="cls-2" cx="80.83" cy="116.39" r=".74"/>
    <circle class="cls-2" cx="80.83" cy="116.39" r=".74"/>
    <circle class="cls-2" cx="80.83" cy="116.39" r=".74"/>
    <circle class="cls-2" cx="80.83" cy="116.39" r=".74"/>
    <circle class="cls-2" cx="80.83" cy="116.39" r=".74"/>
    <circle class="cls-2" cx="80.83" cy="116.39" r=".74"/>
    <circle class="cls-2" cx="80.83" cy="116.39" r=".74"/>
    <circle class="cls-2" cx="80.83" cy="116.39" r=".74"/>
    <circle class="cls-2" cx="80.83" cy="116.39" r=".74"/>
    <circle class="cls-2" cx="80.83" cy="116.39" r=".74"/>
    <circle class="cls-2" cx="80.83" cy="116.39" r=".74"/>
    <circle class="cls-2" cx="80.83" cy="116.39" r=".74"/>
    <circle class="cls-2" cx="80.83" cy="116.39" r=".74"/>
    <circle class="cls-2" cx="80.83" cy="116.39" r=".74"/>
    <circle class="cls-2" cx="80.83" cy="116.39" r=".74"/>
    <circle class="cls-2" cx="80.83" cy="116.39" r=".74"/>
    <circle class="cls-2" cx="80.83" cy="116.39" r=".74"/>
    <circle class="cls-2" cx="80.83" cy="116.39" r=".74"/>
    <circle class="cls-2" cx="80.83" cy="116.39" r=".74"/>
    <circle class="cls-2" cx="80.83" cy="116.39" r=".74"/>
    <circle class="cls-2" cx="80.83" cy="116.39" r=".74"/>
    <circle class="cls-2" cx="80.83" cy="116.39" r=".74"/>
    <circle class="cls-2" cx="80.83" cy="116.39" r=".74"/>
    <circle class="cls-2" cx="80.83" cy="116.39" r=".74"/>
    <circle class="cls-2" cx="80.83" cy="77.84" r=".74"/>
    <circle class="cls-2" cx="80.83" cy="154.94" r=".74"/>
    <circle class="cls-2" cx="80.83" cy="174.22" r=".74"/>
    <circle class="cls-2" cx="80.83" cy="193.49" r=".74"/>
    <circle class="cls-2" cx="80.83" cy="212.77" r=".74"/>
    <circle class="cls-2" cx="80.83" cy="251.32" r=".74"/>
    <circle class="cls-2" cx="80.83" cy="270.6" r=".74"/>
    <circle class="cls-2" cx="80.83" cy="270.6" r=".74"/>
    <circle class="cls-2" cx="80.83" cy="270.6" r=".74"/>
    <circle class="cls-2" cx="80.83" cy="270.6" r=".74"/>
    <circle class="cls-2" cx="80.83" cy="270.6" r=".74"/>
    <circle class="cls-2" cx="80.83" cy="270.6" r=".74"/>
    <circle class="cls-2" cx="80.83" cy="270.6" r=".74"/>
    <circle class="cls-2" cx="80.83" cy="270.6" r=".74"/>
    <circle class="cls-2" cx="80.83" cy="270.6" r=".74"/>
    <circle class="cls-2" cx="80.83" cy="270.6" r=".74"/>
    <circle class="cls-2" cx="80.83" cy="270.6" r=".74"/>
    <circle class="cls-2" cx="80.83" cy="270.6" r=".74"/>
    <circle class="cls-2" cx="80.83" cy="270.6" r=".74"/>
    <circle class="cls-2" cx="80.83" cy="270.6" r=".74"/>
    <circle class="cls-2" cx="80.83" cy="270.6" r=".74"/>
    <circle class="cls-2" cx="80.83" cy="270.6" r=".74"/>
    <circle class="cls-2" cx="80.83" cy="270.6" r=".74"/>
    <circle class="cls-2" cx="80.83" cy="270.6" r=".74"/>
    <circle class="cls-2" cx="80.83" cy="270.6" r=".74"/>
    <circle class="cls-2" cx="80.83" cy="270.6" r=".74"/>
    <circle class="cls-2" cx="80.83" cy="270.6" r=".74"/>
    <circle class="cls-2" cx="80.83" cy="270.6" r=".74"/>
    <circle class="cls-2" cx="80.83" cy="270.6" r=".74"/>
    <circle class="cls-2" cx="80.83" cy="270.6" r=".74"/>
    <circle class="cls-2" cx="80.83" cy="270.6" r=".74"/>
    <circle class="cls-2" cx="80.83" cy="270.6" r=".74"/>
    <circle class="cls-2" cx="80.83" cy="270.6" r=".74"/>
    <circle class="cls-2" cx="80.83" cy="270.6" r=".74"/>
    <circle class="cls-2" cx="80.83" cy="270.6" r=".74"/>
    <circle class="cls-2" cx="80.83" cy="270.6" r=".74"/>
    <circle class="cls-2" cx="80.83" cy="270.6" r=".74"/>
    <circle class="cls-2" cx="80.83" cy="270.6" r=".74"/>
    <circle class="cls-2" cx="80.83" cy="270.6" r=".74"/>
    <circle class="cls-2" cx="80.83" cy="270.6" r=".74"/>
    <circle class="cls-2" cx="80.83" cy="270.6" r=".74"/>
    <circle class="cls-2" cx="80.83" cy="270.6" r=".74"/>
    <circle class="cls-2" cx="80.83" cy="270.6" r=".74"/>
    <circle class="cls-2" cx="80.83" cy="270.6" r=".74"/>
    <circle class="cls-2" cx="80.83" cy="270.6" r=".74"/>
    <circle class="cls-2" cx="80.83" cy="270.6" r=".74"/>
    <circle class="cls-2" cx="80.83" cy="270.6" r=".74"/>
    <circle class="cls-2" cx="80.83" cy="270.6" r=".74"/>
    <circle class="cls-2" cx="80.83" cy="270.6" r=".74"/>
    <circle class="cls-2" cx="80.83" cy="270.6" r=".74"/>
    <circle class="cls-2" cx="80.83" cy="270.6" r=".74"/>
    <circle class="cls-2" cx="80.83" cy="270.6" r=".74"/>
    <circle class="cls-2" cx="80.83" cy="270.6" r=".74"/>
    <circle class="cls-2" cx="80.83" cy="270.6" r=".74"/>
    <circle class="cls-2" cx="80.83" cy="270.6" r=".74"/>
    <circle class="cls-2" cx="80.83" cy="270.6" r=".74"/>
    <circle class="cls-2" cx="80.83" cy="270.6" r=".74"/>
    <circle class="cls-2" cx="80.83" cy="270.6" r=".74"/>
    <circle class="cls-2" cx="80.83" cy="270.6" r=".74"/>
    <circle class="cls-2" cx="80.83" cy="270.6" r=".74"/>
    <circle class="cls-2" cx="80.83" cy="270.6" r=".74"/>
    <circle class="cls-2" cx="80.83" cy="270.6" r=".74"/>
    <circle class="cls-2" cx="80.83" cy="270.6" r=".74"/>
    <circle class="cls-2" cx="80.83" cy="270.6" r=".74"/>
    <circle class="cls-2" cx="80.83" cy="270.6" r=".74"/>
    <circle class="cls-2" cx="80.83" cy="270.6" r=".74"/>
    <circle class="cls-2" cx="80.83" cy="270.6" r=".74"/>
    <circle class="cls-2" cx="80.83" cy="270.6" r=".74"/>
    <circle class="cls-2" cx="80.83" cy="270.6" r=".74"/>
    <circle class="cls-2" cx="80.83" cy="270.6" r=".74"/>
    <circle class="cls-2" cx="80.83" cy="270.6" r=".74"/>
    <circle class="cls-2" cx="80.83" cy="270.6" r=".74"/>
    <circle class="cls-2" cx="80.83" cy="270.6" r=".74"/>
    <circle class="cls-2" cx="80.83" cy="270.6" r=".74"/>
    <circle class="cls-2" cx="80.83" cy="270.6" r=".74"/>
    <circle class="cls-2" cx="80.83" cy="270.6" r=".74"/>
    <circle class="cls-2" cx="80.83" cy="270.6" r=".74"/>
    <circle class="cls-2" cx="80.83" cy="270.6" r=".74"/>
    <circle class="cls-2" cx="80.83" cy="270.6" r=".74"/>
    <circle class="cls-2" cx="80.83" cy="270.6" r=".74"/>
    <circle class="cls-2" cx="80.83" cy="270.6" r=".74"/>
    <circle class="cls-2" cx="80.83" cy="270.6" r=".74"/>
    <circle class="cls-2" cx="80.83" cy="270.6" r=".74"/>
    <circle class="cls-2" cx="80.83" cy="270.6" r=".74"/>
    <circle class="cls-2" cx="80.83" cy="270.6" r=".74"/>
    <circle class="cls-2" cx="80.83" cy="270.6" r=".74"/>
    <circle class="cls-2" cx="80.83" cy="270.6" r=".74"/>
    <circle class="cls-2" cx="80.83" cy="270.6" r=".74"/>
    <circle class="cls-2" cx="80.83" cy="270.6" r=".74"/>
    <circle class="cls-2" cx="80.83" cy="270.6" r=".74"/>
    <circle class="cls-2" cx="80.83" cy="270.6" r=".74"/>
    <circle class="cls-2" cx="80.83" cy="270.6" r=".74"/>
    <circle class="cls-2" cx="80.83" cy="270.6" r=".74"/>
    <circle class="cls-2" cx="80.83" cy="270.6" r=".74"/>
    <circle class="cls-2" cx="80.83" cy="270.6" r=".74"/>
    <circle class="cls-2" cx="80.83" cy="270.6" r=".74"/>
    <circle class="cls-2" cx="80.83" cy="270.6" r=".74"/>
    <circle class="cls-2" cx="80.83" cy="270.6" r=".74"/>
    <circle class="cls-2" cx="80.83" cy="270.6" r=".74"/>
    <circle class="cls-2" cx="80.83" cy="270.6" r=".74"/>
    <circle class="cls-2" cx="80.83" cy="270.6" r=".74"/>
    <circle class="cls-2" cx="80.83" cy="270.6" r=".74"/>
    <circle class="cls-2" cx="80.83" cy="232.04" r=".74"/>
    <circle class="cls-2" cx="80.83" cy="289.87" r=".74"/>
    <circle class="cls-2" cx="80.83" cy="289.87" r=".74"/>
    <circle class="cls-2" cx="80.83" cy="289.87" r=".74"/>
    <circle class="cls-2" cx="80.83" cy="289.87" r=".74"/>
    <circle class="cls-2" cx="80.83" cy="289.87" r=".74"/>
    <circle class="cls-2" cx="80.83" cy="289.87" r=".74"/>
    <circle class="cls-2" cx="80.83" cy="289.87" r=".74"/>
    <circle class="cls-2" cx="80.83" cy="289.87" r=".74"/>
    <circle class="cls-2" cx="80.83" cy="289.87" r=".74"/>
    <circle class="cls-2" cx="80.83" cy="289.87" r=".74"/>
    <circle class="cls-2" cx="80.83" cy="289.87" r=".74"/>
    <circle class="cls-2" cx="80.83" cy="289.87" r=".74"/>
    <circle class="cls-2" cx="80.83" cy="289.87" r=".74"/>
    <circle class="cls-2" cx="80.83" cy="289.87" r=".74"/>
    <circle class="cls-2" cx="80.83" cy="289.87" r=".74"/>
    <circle class="cls-2" cx="80.83" cy="289.87" r=".74"/>
    <circle class="cls-2" cx="80.83" cy="289.87" r=".74"/>
    <circle class="cls-2" cx="80.83" cy="289.87" r=".74"/>
    <circle class="cls-2" cx="80.83" cy="289.87" r=".74"/>
    <circle class="cls-2" cx="80.83" cy="289.87" r=".74"/>
    <circle class="cls-2" cx="80.83" cy="289.87" r=".74"/>
    <circle class="cls-2" cx="80.83" cy="289.87" r=".74"/>
    <circle class="cls-2" cx="80.83" cy="289.87" r=".74"/>
    <circle class="cls-2" cx="80.83" cy="289.87" r=".74"/>
    <circle class="cls-2" cx="80.83" cy="289.87" r=".74"/>
    <circle class="cls-2" cx="80.83" cy="289.87" r=".74"/>
    <circle class="cls-2" cx="80.83" cy="289.87" r=".74"/>
    <circle class="cls-2" cx="80.83" cy="289.87" r=".74"/>
    <circle class="cls-2" cx="80.83" cy="289.87" r=".74"/>
    <circle class="cls-2" cx="80.83" cy="289.87" r=".74"/>
    <circle class="cls-2" cx="80.83" cy="289.87" r=".74"/>
    <circle class="cls-2" cx="80.83" cy="289.87" r=".74"/>
    <circle class="cls-2" cx="80.83" cy="289.87" r=".74"/>
    <circle class="cls-2" cx="80.83" cy="289.87" r=".74"/>
    <circle class="cls-2" cx="80.83" cy="289.87" r=".74"/>
    <circle class="cls-2" cx="80.83" cy="289.87" r=".74"/>
    <circle class="cls-2" cx="80.83" cy="289.87" r=".74"/>
    <circle class="cls-2" cx="80.83" cy="289.87" r=".74"/>
    <circle class="cls-2" cx="80.83" cy="289.87" r=".74"/>
    <circle class="cls-2" cx="80.83" cy="289.87" r=".74"/>
    <circle class="cls-2" cx="80.83" cy="289.87" r=".74"/>
    <circle class="cls-2" cx="80.83" cy="289.87" r=".74"/>
    <circle class="cls-2" cx="80.83" cy="289.87" r=".74"/>
    <circle class="cls-2" cx="80.83" cy="289.87" r=".74"/>
    <circle class="cls-2" cx="80.83" cy="289.87" r=".74"/>
    <circle class="cls-2" cx="80.83" cy="289.87" r=".74"/>
    <circle class="cls-2" cx="80.83" cy="289.87" r=".74"/>
    <circle class="cls-2" cx="80.83" cy="289.87" r=".74"/>
    <rect class="cls-1" x="91.85" y="103.68" width="61.11" height="61.11"/>
    <rect class="cls-1" y="101.46" width="61.11" height="61.11"/>
  </g>
</svg>