<?xml version="1.0" encoding="UTF-8"?>
<svg id="_레이어_2" data-name="레이어 2" xmlns="http://www.w3.org/2000/svg" viewBox="0 0 175.08 275.22">
  <defs>
    <style>
      .cls-1 {
        fill: none;
      }

      .cls-2 {
        fill: #231815;
      }
    </style>
  </defs>
  <g id="_레이어_1-2" data-name="레이어 1">
    <circle class="cls-2" cx="83.42" cy="133.91" r="2.23"/>
    <circle class="cls-2" cx="83.42" cy="274.48" r=".74"/>
    <circle class="cls-2" cx="83.42" cy="193.1" r=".74"/>
    <circle class="cls-2" cx="83.42" cy="185.7" r=".74"/>
    <circle class="cls-2" cx="83.42" cy="178.3" r=".74"/>
    <circle class="cls-2" cx="83.42" cy="170.9" r=".74"/>
    <circle class="cls-2" cx="83.42" cy="163.5" r=".74"/>
    <circle class="cls-2" cx="83.42" cy="156.1" r=".74"/>
    <circle class="cls-2" cx="83.42" cy="237.49" r=".72"/>
    <circle class="cls-2" cx="83.42" cy="141.31" r=".74"/>
    <circle class="cls-2" cx="83.42" cy="259.68" r=".74"/>
    <circle class="cls-2" cx="83.42" cy="252.28" r=".74"/>
    <circle class="cls-2" cx="83.42" cy="244.89" r=".74"/>
    <circle class="cls-2" cx="83.42" cy="230.09" r=".74"/>
    <circle class="cls-2" cx="83.42" cy="222.69" r=".74"/>
    <circle class="cls-2" cx="83.42" cy="207.89" r=".74"/>
    <circle class="cls-2" cx="83.42" cy="200.49" r=".74"/>
    <circle class="cls-2" cx="83.42" cy="148.71" r=".74"/>
    <circle class="cls-2" cx="83.42" cy="215.29" r=".72"/>
    <circle class="cls-2" cx="83.42" cy="267.08" r=".74"/>
    <circle class="cls-2" cx="83.42" cy="126.51" r=".74"/>
    <circle class="cls-2" cx="83.42" cy="45.13" r=".74"/>
    <circle class="cls-2" cx="83.42" cy="37.73" r=".74"/>
    <circle class="cls-2" cx="83.42" cy="30.33" r=".74"/>
    <circle class="cls-2" cx="83.42" cy="22.93" r=".74"/>
    <circle class="cls-2" cx="83.42" cy="15.53" r=".74"/>
    <circle class="cls-2" cx="83.42" cy="8.14" r=".74"/>
    <circle class="cls-2" cx="83.42" cy="89.52" r=".72"/>
    <circle class="cls-2" cx="83.42" cy="111.71" r=".74"/>
    <circle class="cls-2" cx="83.42" cy="104.31" r=".74"/>
    <circle class="cls-2" cx="83.42" cy="96.92" r=".74"/>
    <circle class="cls-2" cx="83.42" cy="82.12" r=".74"/>
    <circle class="cls-2" cx="83.42" cy="74.72" r=".74"/>
    <circle class="cls-2" cx="83.42" cy="59.92" r=".74"/>
    <circle class="cls-2" cx="83.42" cy="52.53" r=".74"/>
    <circle class="cls-2" cx="83.42" cy=".74" r=".74"/>
    <circle class="cls-2" cx="83.42" cy="67.32" r=".72"/>
    <circle class="cls-2" cx="83.42" cy="119.11" r=".74"/>
    <rect class="cls-1" y="115.17" width="61.11" height="61.11"/>
    <rect class="cls-1" x="113.97" y="110.99" width="61.11" height="61.11"/>
  </g>
</svg>