<?xml version="1.0" encoding="UTF-8"?>
<svg id="_레이어_2" data-name="레이어 2" xmlns="http://www.w3.org/2000/svg" viewBox="0 0 167.34 281.59">
  <defs>
    <style>
      .cls-1 {
        fill: none;
      }

      .cls-2 {
        fill: #231815;
      }
    </style>
  </defs>
  <g id="_레이어_1-2" data-name="레이어 1">
    <circle class="cls-2" cx="77.47" cy="42.24" r=".74"/>
    <circle class="cls-2" cx="77.47" cy="135.61" r="2.23"/>
    <circle class="cls-2" cx="77.47" cy="94.11" r=".74"/>
    <circle class="cls-2" cx="77.47" cy="114.86" r=".74"/>
    <circle class="cls-2" cx="77.47" cy="104.49" r=".74"/>
    <circle class="cls-2" cx="77.47" cy="125.23" r=".74"/>
    <circle class="cls-2" cx="77.47" cy=".74" r=".74"/>
    <circle class="cls-2" cx="77.47" cy="11.11" r=".74"/>
    <circle class="cls-2" cx="77.47" cy="21.49" r=".74"/>
    <circle class="cls-2" cx="77.47" cy="31.86" r=".74"/>
    <circle class="cls-2" cx="77.47" cy="52.61" r=".74"/>
    <circle class="cls-2" cx="77.47" cy="62.99" r=".74"/>
    <circle class="cls-2" cx="77.47" cy="73.36" r=".74"/>
    <circle class="cls-2" cx="77.47" cy="83.74" r=".74"/>
    <circle class="cls-2" cx="77.47" cy="187.48" r=".74"/>
    <circle class="cls-2" cx="77.47" cy="239.36" r=".74"/>
    <circle class="cls-2" cx="77.47" cy="260.11" r=".74"/>
    <circle class="cls-2" cx="77.47" cy="249.73" r=".74"/>
    <circle class="cls-2" cx="77.47" cy="270.48" r=".74"/>
    <circle class="cls-2" cx="77.47" cy="145.98" r=".74"/>
    <circle class="cls-2" cx="77.47" cy="156.36" r=".74"/>
    <circle class="cls-2" cx="77.47" cy="166.73" r=".74"/>
    <circle class="cls-2" cx="77.47" cy="177.11" r=".74"/>
    <circle class="cls-2" cx="77.47" cy="197.86" r=".74"/>
    <circle class="cls-2" cx="77.47" cy="208.23" r=".74"/>
    <circle class="cls-2" cx="77.47" cy="218.61" r=".74"/>
    <circle class="cls-2" cx="77.47" cy="228.98" r=".74"/>
    <circle class="cls-2" cx="77.47" cy="280.86" r=".74"/>
    <rect class="cls-1" x="106.23" y="108.67" width="61.11" height="61.11"/>
    <rect class="cls-1" y="105.7" width="61.11" height="61.11"/>
  </g>
</svg>