<?xml version="1.0" encoding="UTF-8"?>
<svg id="_레이어_2" data-name="레이어 2" xmlns="http://www.w3.org/2000/svg" viewBox="0 0 161.83 283.04">
  <defs>
    <style>
      .cls-1 {
        fill: none;
      }

      .cls-2 {
        fill: #231815;
      }
    </style>
  </defs>
  <g id="_레이어_1-2" data-name="레이어 1">
    <circle class="cls-2" cx="72.11" cy=".74" r=".74"/>
    <circle class="cls-2" cx="72.11" cy="2.24" r=".74"/>
    <circle class="cls-2" cx="72.11" cy="3.69" r=".74"/>
    <circle class="cls-2" cx="72.11" cy="5.16" r=".74"/>
    <circle class="cls-2" cx="72.11" cy="6.63" r=".74"/>
    <circle class="cls-2" cx="72.11" cy="8.11" r=".74"/>
    <circle class="cls-2" cx="72.11" cy="9.58" r=".74"/>
    <circle class="cls-2" cx="72.11" cy="11.06" r=".74"/>
    <circle class="cls-2" cx="72.11" cy="12.53" r=".74"/>
    <circle class="cls-2" cx="72.11" cy="14" r=".74"/>
    <circle class="cls-2" cx="72.11" cy="15.48" r=".74"/>
    <circle class="cls-2" cx="72.11" cy="16.98" r=".74"/>
    <circle class="cls-2" cx="72.11" cy="18.43" r=".74"/>
    <circle class="cls-2" cx="72.11" cy="19.9" r=".74"/>
    <circle class="cls-2" cx="72.11" cy="21.37" r=".74"/>
    <circle class="cls-2" cx="72.11" cy="22.85" r=".74"/>
    <circle class="cls-2" cx="72.11" cy="24.32" r=".74"/>
    <circle class="cls-2" cx="72.11" cy="25.8" r=".74"/>
    <circle class="cls-2" cx="72.11" cy="27.27" r=".74"/>
    <circle class="cls-2" cx="72.11" cy="28.74" r=".74"/>
    <circle class="cls-2" cx="72.11" cy="30.22" r=".74"/>
    <circle class="cls-2" cx="72.11" cy="31.72" r=".74"/>
    <circle class="cls-2" cx="72.11" cy="33.17" r=".74"/>
    <circle class="cls-2" cx="72.11" cy="34.64" r=".74"/>
    <circle class="cls-2" cx="72.11" cy="36.11" r=".74"/>
    <circle class="cls-2" cx="72.11" cy="37.59" r=".74"/>
    <circle class="cls-2" cx="72.11" cy="39.06" r=".74"/>
    <circle class="cls-2" cx="72.11" cy="40.54" r=".74"/>
    <circle class="cls-2" cx="72.11" cy="42.01" r=".74"/>
    <circle class="cls-2" cx="72.11" cy="43.48" r=".74"/>
    <circle class="cls-2" cx="72.11" cy="44.96" r=".74"/>
    <circle class="cls-2" cx="72.11" cy="46.46" r=".74"/>
    <circle class="cls-2" cx="72.11" cy="47.91" r=".74"/>
    <circle class="cls-2" cx="72.11" cy="49.38" r=".74"/>
    <circle class="cls-2" cx="72.11" cy="50.85" r=".74"/>
    <circle class="cls-2" cx="72.11" cy="52.33" r=".74"/>
    <circle class="cls-2" cx="72.11" cy="53.8" r=".74"/>
    <circle class="cls-2" cx="72.11" cy="55.28" r=".74"/>
    <circle class="cls-2" cx="72.11" cy="56.75" r=".74"/>
    <circle class="cls-2" cx="72.11" cy="117.18" r=".74"/>
    <circle class="cls-2" cx="72.11" cy="118.66" r=".74"/>
    <circle class="cls-2" cx="72.11" cy="120.16" r=".74"/>
    <circle class="cls-2" cx="72.11" cy="121.61" r=".74"/>
    <circle class="cls-2" cx="72.11" cy="123.08" r=".74"/>
    <circle class="cls-2" cx="72.11" cy="124.55" r=".74"/>
    <circle class="cls-2" cx="72.11" cy="126.03" r=".74"/>
    <circle class="cls-2" cx="72.11" cy="127.5" r=".74"/>
    <circle class="cls-2" cx="72.11" cy="128.98" r=".74"/>
    <circle class="cls-2" cx="72.11" cy="130.45" r=".74"/>
    <circle class="cls-2" cx="72.11" cy="131.92" r=".74"/>
    <circle class="cls-2" cx="72.11" cy="133.4" r=".74"/>
    <circle class="cls-2" cx="72.11" cy="134.9" r=".74"/>
    <circle class="cls-2" cx="72.11" cy="136.35" r=".74"/>
    <circle class="cls-2" cx="72.11" cy="137.82" r=".74"/>
    <circle class="cls-2" cx="72.11" cy="140.78" r="2.23"/>
    <circle class="cls-2" cx="72.11" cy="143.74" r=".74"/>
    <circle class="cls-2" cx="72.11" cy="145.22" r=".74"/>
    <circle class="cls-2" cx="72.11" cy="146.69" r=".74"/>
    <circle class="cls-2" cx="72.11" cy="148.17" r=".74"/>
    <circle class="cls-2" cx="72.11" cy="58.22" r=".74"/>
    <circle class="cls-2" cx="72.11" cy="59.7" r=".74"/>
    <circle class="cls-2" cx="72.11" cy="61.2" r=".74"/>
    <circle class="cls-2" cx="72.11" cy="62.65" r=".74"/>
    <circle class="cls-2" cx="72.11" cy="64.12" r=".74"/>
    <circle class="cls-2" cx="72.11" cy="65.59" r=".74"/>
    <circle class="cls-2" cx="72.11" cy="67.07" r=".74"/>
    <circle class="cls-2" cx="72.11" cy="68.54" r=".74"/>
    <circle class="cls-2" cx="72.11" cy="70.02" r=".74"/>
    <circle class="cls-2" cx="72.11" cy="71.49" r=".74"/>
    <circle class="cls-2" cx="72.11" cy="72.96" r=".74"/>
    <circle class="cls-2" cx="72.11" cy="74.44" r=".74"/>
    <circle class="cls-2" cx="72.11" cy="75.94" r=".74"/>
    <circle class="cls-2" cx="72.11" cy="77.39" r=".74"/>
    <circle class="cls-2" cx="72.11" cy="78.86" r=".74"/>
    <circle class="cls-2" cx="72.11" cy="80.33" r=".74"/>
    <circle class="cls-2" cx="72.11" cy="81.81" r=".74"/>
    <circle class="cls-2" cx="72.11" cy="83.28" r=".74"/>
    <circle class="cls-2" cx="72.11" cy="84.76" r=".74"/>
    <circle class="cls-2" cx="72.11" cy="86.23" r=".74"/>
    <circle class="cls-2" cx="72.11" cy="87.7" r=".74"/>
    <circle class="cls-2" cx="72.11" cy="89.18" r=".74"/>
    <circle class="cls-2" cx="72.11" cy="90.68" r=".74"/>
    <circle class="cls-2" cx="72.11" cy="92.13" r=".74"/>
    <circle class="cls-2" cx="72.11" cy="93.6" r=".74"/>
    <circle class="cls-2" cx="72.11" cy="95.07" r=".74"/>
    <circle class="cls-2" cx="72.11" cy="96.55" r=".74"/>
    <circle class="cls-2" cx="72.11" cy="98.02" r=".74"/>
    <circle class="cls-2" cx="72.11" cy="99.5" r=".74"/>
    <circle class="cls-2" cx="72.11" cy="100.97" r=".74"/>
    <circle class="cls-2" cx="72.11" cy="102.44" r=".74"/>
    <circle class="cls-2" cx="72.11" cy="103.92" r=".74"/>
    <circle class="cls-2" cx="72.11" cy="105.42" r=".74"/>
    <circle class="cls-2" cx="72.11" cy="106.87" r=".74"/>
    <circle class="cls-2" cx="72.11" cy="108.34" r=".74"/>
    <circle class="cls-2" cx="72.11" cy="109.81" r=".74"/>
    <circle class="cls-2" cx="72.11" cy="111.29" r=".74"/>
    <circle class="cls-2" cx="72.11" cy="112.76" r=".74"/>
    <circle class="cls-2" cx="72.11" cy="114.24" r=".74"/>
    <circle class="cls-2" cx="72.11" cy="115.71" r=".74"/>
    <circle class="cls-2" cx="72.11" cy="149.64" r=".74"/>
    <circle class="cls-2" cx="72.11" cy="151.11" r=".74"/>
    <circle class="cls-2" cx="72.11" cy="152.62" r=".74"/>
    <circle class="cls-2" cx="72.11" cy="154.06" r=".74"/>
    <circle class="cls-2" cx="72.11" cy="155.54" r=".74"/>
    <circle class="cls-2" cx="72.11" cy="157.01" r=".74"/>
    <circle class="cls-2" cx="72.11" cy="158.49" r=".74"/>
    <circle class="cls-2" cx="72.11" cy="159.96" r=".74"/>
    <circle class="cls-2" cx="72.11" cy="161.43" r=".74"/>
    <circle class="cls-2" cx="72.11" cy="162.91" r=".74"/>
    <circle class="cls-2" cx="72.11" cy="164.38" r=".74"/>
    <circle class="cls-2" cx="72.11" cy="165.86" r=".74"/>
    <circle class="cls-2" cx="72.11" cy="167.36" r=".74"/>
    <circle class="cls-2" cx="72.11" cy="168.8" r=".74"/>
    <circle class="cls-2" cx="72.11" cy="170.28" r=".74"/>
    <circle class="cls-2" cx="72.11" cy="171.75" r=".74"/>
    <circle class="cls-2" cx="72.11" cy="173.23" r=".74"/>
    <circle class="cls-2" cx="72.11" cy="174.7" r=".74"/>
    <circle class="cls-2" cx="72.11" cy="176.17" r=".74"/>
    <circle class="cls-2" cx="72.11" cy="177.65" r=".74"/>
    <circle class="cls-2" cx="72.11" cy="179.12" r=".74"/>
    <circle class="cls-2" cx="72.11" cy="180.6" r=".74"/>
    <circle class="cls-2" cx="72.11" cy="182.1" r=".74"/>
    <circle class="cls-2" cx="72.11" cy="183.54" r=".74"/>
    <circle class="cls-2" cx="72.11" cy="185.02" r=".74"/>
    <circle class="cls-2" cx="72.11" cy="186.49" r=".74"/>
    <circle class="cls-2" cx="72.11" cy="187.97" r=".74"/>
    <circle class="cls-2" cx="72.11" cy="189.44" r=".74"/>
    <circle class="cls-2" cx="72.11" cy="190.91" r=".74"/>
    <circle class="cls-2" cx="72.11" cy="192.39" r=".74"/>
    <circle class="cls-2" cx="72.11" cy="193.86" r=".74"/>
    <circle class="cls-2" cx="72.11" cy="195.34" r=".74"/>
    <circle class="cls-2" cx="72.11" cy="196.84" r=".74"/>
    <circle class="cls-2" cx="72.11" cy="198.28" r=".74"/>
    <circle class="cls-2" cx="72.11" cy="199.76" r=".74"/>
    <circle class="cls-2" cx="72.11" cy="201.23" r=".74"/>
    <circle class="cls-2" cx="72.11" cy="202.71" r=".74"/>
    <circle class="cls-2" cx="72.11" cy="204.18" r=".74"/>
    <circle class="cls-2" cx="72.11" cy="205.65" r=".74"/>
    <circle class="cls-2" cx="72.11" cy="207.13" r=".74"/>
    <circle class="cls-2" cx="72.11" cy="267.56" r=".74"/>
    <circle class="cls-2" cx="72.11" cy="269.04" r=".74"/>
    <circle class="cls-2" cx="72.11" cy="270.54" r=".74"/>
    <circle class="cls-2" cx="72.11" cy="271.98" r=".74"/>
    <circle class="cls-2" cx="72.11" cy="273.46" r=".74"/>
    <circle class="cls-2" cx="72.11" cy="274.93" r=".74"/>
    <circle class="cls-2" cx="72.11" cy="276.41" r=".74"/>
    <circle class="cls-2" cx="72.11" cy="277.88" r=".74"/>
    <circle class="cls-2" cx="72.11" cy="279.35" r=".74"/>
    <circle class="cls-2" cx="72.11" cy="280.83" r=".74"/>
    <circle class="cls-2" cx="72.11" cy="282.3" r=".74"/>
    <circle class="cls-2" cx="72.11" cy="208.6" r=".74"/>
    <circle class="cls-2" cx="72.11" cy="210.08" r=".74"/>
    <circle class="cls-2" cx="72.11" cy="211.58" r=".74"/>
    <circle class="cls-2" cx="72.11" cy="213.02" r=".74"/>
    <circle class="cls-2" cx="72.11" cy="214.5" r=".74"/>
    <circle class="cls-2" cx="72.11" cy="215.97" r=".74"/>
    <circle class="cls-2" cx="72.11" cy="217.45" r=".74"/>
    <circle class="cls-2" cx="72.11" cy="218.92" r=".74"/>
    <circle class="cls-2" cx="72.11" cy="220.39" r=".74"/>
    <circle class="cls-2" cx="72.11" cy="221.87" r=".74"/>
    <circle class="cls-2" cx="72.11" cy="223.34" r=".74"/>
    <circle class="cls-2" cx="72.11" cy="224.82" r=".74"/>
    <circle class="cls-2" cx="72.11" cy="226.32" r=".74"/>
    <circle class="cls-2" cx="72.11" cy="227.76" r=".74"/>
    <circle class="cls-2" cx="72.11" cy="229.24" r=".74"/>
    <circle class="cls-2" cx="72.11" cy="230.71" r=".74"/>
    <circle class="cls-2" cx="72.11" cy="232.19" r=".74"/>
    <circle class="cls-2" cx="72.11" cy="233.66" r=".74"/>
    <circle class="cls-2" cx="72.11" cy="235.13" r=".74"/>
    <circle class="cls-2" cx="72.11" cy="236.61" r=".74"/>
    <circle class="cls-2" cx="72.11" cy="238.08" r=".74"/>
    <circle class="cls-2" cx="72.11" cy="239.56" r=".74"/>
    <circle class="cls-2" cx="72.11" cy="241.06" r=".74"/>
    <circle class="cls-2" cx="72.11" cy="242.5" r=".74"/>
    <circle class="cls-2" cx="72.11" cy="243.98" r=".74"/>
    <circle class="cls-2" cx="72.11" cy="245.45" r=".74"/>
    <circle class="cls-2" cx="72.11" cy="246.93" r=".74"/>
    <circle class="cls-2" cx="72.11" cy="248.4" r=".74"/>
    <circle class="cls-2" cx="72.11" cy="249.87" r=".74"/>
    <circle class="cls-2" cx="72.11" cy="251.35" r=".74"/>
    <circle class="cls-2" cx="72.11" cy="252.82" r=".74"/>
    <circle class="cls-2" cx="72.11" cy="254.3" r=".74"/>
    <circle class="cls-2" cx="72.11" cy="255.8" r=".74"/>
    <circle class="cls-2" cx="72.11" cy="257.24" r=".74"/>
    <circle class="cls-2" cx="72.11" cy="258.72" r=".74"/>
    <circle class="cls-2" cx="72.11" cy="260.19" r=".74"/>
    <circle class="cls-2" cx="72.11" cy="261.67" r=".74"/>
    <circle class="cls-2" cx="72.11" cy="263.14" r=".74"/>
    <circle class="cls-2" cx="72.11" cy="264.61" r=".74"/>
    <circle class="cls-2" cx="72.11" cy="266.09" r=".74"/>
    <rect class="cls-1" x="100.73" y="105.87" width="61.11" height="61.11"/>
    <rect class="cls-1" y="108.68" width="61.11" height="61.11"/>
  </g>
</svg>