<?xml version="1.0" encoding="UTF-8"?>
<svg id="_레이어_2" data-name="레이어 2" xmlns="http://www.w3.org/2000/svg" viewBox="0 0 164.15 292.11">
  <defs>
    <style>
      .cls-1 {
        fill: none;
      }

      .cls-2 {
        fill: #231815;
      }
    </style>
  </defs>
  <g id="_레이어_1-2" data-name="레이어 1">
    <circle class="cls-2" cx="82.17" cy="134.25" r="2.23"/>
    <circle class="cls-2" cx="81.43" cy="291.37" r=".74"/>
    <circle class="cls-2" cx="82.17" cy="281.11" r=".74"/>
    <circle class="cls-2" cx="82.17" cy="27.44" r=".74"/>
    <circle class="cls-2" cx="82.17" cy="40.79" r=".74"/>
    <circle class="cls-2" cx="82.17" cy="54.14" r=".74"/>
    <circle class="cls-2" cx="82.17" cy="67.49" r=".74"/>
    <circle class="cls-2" cx="82.17" cy="80.84" r=".74"/>
    <circle class="cls-2" cx="82.17" cy="94.2" r=".74"/>
    <circle class="cls-2" cx="82.17" cy=".74" r=".74"/>
    <circle class="cls-2" cx="82.17" cy="14.09" r=".74"/>
    <circle class="cls-2" cx="82.17" cy="120.9" r=".74"/>
    <circle class="cls-2" cx="82.17" cy="107.55" r=".74"/>
    <circle class="cls-2" cx="82.17" cy="174.3" r=".74"/>
    <circle class="cls-2" cx="82.17" cy="187.65" r=".74"/>
    <circle class="cls-2" cx="82.17" cy="201" r=".74"/>
    <circle class="cls-2" cx="82.17" cy="214.36" r=".74"/>
    <circle class="cls-2" cx="82.17" cy="227.71" r=".74"/>
    <circle class="cls-2" cx="82.17" cy="241.06" r=".74"/>
    <circle class="cls-2" cx="82.17" cy="147.6" r=".74"/>
    <circle class="cls-2" cx="82.17" cy="160.95" r=".74"/>
    <circle class="cls-2" cx="82.17" cy="267.76" r=".74"/>
    <circle class="cls-2" cx="82.17" cy="254.41" r=".74"/>
    <rect class="cls-1" x="103.04" y="100.8" width="61.11" height="61.11"/>
    <rect class="cls-1" y="99.97" width="61.11" height="61.11"/>
  </g>
</svg>